<svg xmlns="http://www.w3.org/2000/svg" width="512" height="512" viewBox="0 0 512 512">
  <rect width="512" height="512" fill="#fff"/>
  <rect x="32" y="32" width="448" height="448" fill="none" stroke="#e5e7eb" stroke-width="6"/>
  <g fill="#111827">
    <rect x="64" y="64" width="48" height="48"/>
    <rect x="128" y="64" width="16" height="16"/>
    <rect x="96" y="128" width="16" height="16"/>
    <rect x="64" y="192" width="48" height="48"/>
    <rect x="192" y="64" width="48" height="48"/>
    <rect x="192" y="144" width="16" height="16"/>
    <rect x="256" y="64" width="16" height="16"/>
    <rect x="256" y="128" width="48" height="48"/>
    <rect x="320" y="64" width="16" height="16"/>

    <rect x="400" y="64" width="48" height="48"/>
    <rect x="368" y="128" width="16" height="16"/>
    <rect x="400" y="192" width="48" height="48"/>

    <rect x="64" y="400" width="48" height="48"/>
    <rect x="128" y="368" width="16" height="16"/>
    <rect x="192" y="400" width="48" height="48"/>
    <rect x="192" y="336" width="16" height="16"/>
    <rect x="256" y="368" width="16" height="16"/>
    <rect x="256" y="432" width="48" height="48"/>

    <rect x="400" y="400" width="48" height="48"/>
    <rect x="368" y="336" width="16" height="16"/>
  </g>
  <text x="50%" y="95%" text-anchor="middle" font-family="Arial, Helvetica, sans-serif" font-size="20" fill="#6b7280">QR placeholder</text>
</svg>
